Simulation
nRows=15
nColumns=15
endheader
time  TH_x TH_y TH_z SC_y  SC_z  SC_x  AC_y  AC_z  AC_x  GH_y  GH_z  GH_yy  EL_x  PS_y
0.0  0.000000  0.000000  0.000000  -22.215642908396077  -0.15598735722369927  -12.199572126015413  59.830628696515326  14.056392397195667  -0.6686305882352461  6.665401817552483  18.20100649701718  25.01387397955567  32.225725013720705  120.000000
0.025  0.000000  0.000000  0.000000  -22.218710622282515  0.012934200881413293  -11.864183859849762  59.66774183599141  14.174053349654319  -0.895962729069596  6.887269528323039  18.435515311815276  24.357885218169063  31.93062805072296  120.000000
0.05  0.000000  0.000000  0.000000  -22.227038656902444  0.09083172208285768  -11.600821791741083  59.567094516764115  14.235527953712337  -1.0720213609714073  7.144814472674283  18.602574693440737  23.707078171875494  31.68054533454791  120.000000
0.07500000000000001  0.000000  0.000000  0.000000  -22.262454949630033  0.11635258736229942  -11.392078012607755  59.52737945145703  14.276376066257903  -1.2030072318014404  7.4294466552563625  18.721114580130283  23.041907819016846  31.477679134638798  120.000000
0.1  0.000000  0.000000  0.000000  -22.33373216463802  0.12069846214625307  -11.221846874151057  59.54637502796238  14.325670202479587  -1.2947863946420817  7.7307747907829745  18.81432461480023  22.3440843527042  31.322917745036897  120.000000
0.125  0.000000  0.000000  0.000000  -22.443247878839383  0.12729723020025807  -11.074007757260512  59.619770915396835  14.404364254701436  -1.3526995848224672  8.034941185168375  18.911904475003187  21.599318566063236  31.207026207900686  120.000000
0.15000000000000002  0.000000  0.000000  0.000000  -22.588886381810305  0.15049615622458243  -10.936198196540674  59.735567922902426  14.526622765142017  -1.3805781968232995  8.325562604374614  19.0414865962719  20.801989270842153  31.12086279514619  120.000000
0.17500000000000002  0.000000  0.000000  0.000000  -22.765674348594118  0.19901627310017894  -10.80172199699367  59.880433703637365  14.698660830443162  -1.3799874278499427  8.587045436878087  19.225520615906877  19.955406987743867  31.05506930743811  120.000000
0.2  0.000000  0.000000  0.000000  -22.968102605581688  0.27652020673336775  -10.66862897177034  60.04523141763235  14.923386121017163  -1.352251825229733  8.803581189035075  19.479209169136443  19.068105670267006  31.00352782605027  120.000000
0.225  0.000000  0.000000  0.000000  -23.19356909428212  0.3809534615659614  -10.53692720804455  60.225974424685276  15.20425044560095  -1.2999344968736664  8.96192233603209  19.813262927933742  18.15421805348275  30.963412054665863  120.000000
0.25  0.000000  0.000000  0.000000  -23.43862402785152  0.5097616058141351  -10.407298046762737  60.421068119141424  15.54396237181242  -1.2237141041896884  9.049331241442854  20.23281377495602  17.228146921116828  30.934202779315886  120.000000
0.275  0.000000  0.000000  0.000000  -23.701004219034576  0.6604745366623004  -10.280714114516242  60.631509603263126  15.945340561043922  -1.1234459100446537  9.054338640524973  20.73871475420274  16.302895226112227  30.916893617955264  120.000000
0.30000000000000004  0.000000  0.000000  0.000000  -23.981342957847964  0.8294187844113255  -10.158190130431878  60.86050734058413  16.41187742350992  -0.9988751152033831  8.966917606104182  21.328647580209797  15.388321067562849  30.911982481390258  120.000000
0.325  0.000000  0.000000  0.000000  -24.28172678205402  1.011690266878586  -10.041188771298469  61.112540542468295  16.946919195042575  -0.8498882940657796  8.778325775511995  21.998559590253993  14.48910186185617  30.918396789119118  120.000000
0.35000000000000003  0.000000  0.000000  0.000000  -24.60521170640845  1.2015537841565933  -9.931469579430525  61.39281725158774  17.553572650636085  -0.6770638799264496  8.482669443923895  22.743646463145677  13.605427635334042  30.93331763496637  120.000000
